<?xml version="1.0" encoding="utf-8"?>
<!-- Generator: Adobe Illustrator 21.0.0, SVG Export Plug-In . SVG Version: 6.00 Build 0)  -->
<svg version="1.1" id="Layer_1" xmlns="http://www.w3.org/2000/svg" xmlns:xlink="http://www.w3.org/1999/xlink" x="0px" y="0px"
	 viewBox="0 0 855 665" style="enable-background:new 0 0 855 665;" xml:space="preserve">
<style type="text/css">
	.st0{fill:url(#SVGID_1_);}
	.st1{opacity:0.27;}
	.st2{fill:none;}
	.st3{fill:#FFFFFF;}
	.st4{fill:#F4F4F4;}
	.st5{fill:#377DFF;}
	.st6{font-family:'TimesNewRomanPS-BoldMT';}
	.st7{font-size:26.8126px;}
	.st8{font-size:19.4529px;}
</style>
<g>
	
		<radialGradient id="SVGID_1_" cx="427.5" cy="332.5" r="382.4611" gradientTransform="matrix(1 0 0 0.7 0 99.75)" gradientUnits="userSpaceOnUse">
		<stop  offset="0" style="stop-color:#FFFFFF"/>
		<stop  offset="1" style="stop-color:#377DFF"/>
	</radialGradient>
	<rect x="0.5" y="0.5" class="st0" width="854" height="664"/>
	<path d="M854,1v663H1V1H854 M855,0H0v665h855V0L855,0z"/>
</g>
<g class="st1">
	<path class="st2" d="M427,278.1C426.9,278.2,426.9,278.2,427,278.1C426.9,278.1,426.9,278.1,427,278.1
		C427,278.1,427.1,278,427,278.1L4.5,569h50.4L427,278.1C427.1,278.1,427,278.1,427,278.1z"/>
	<path class="st2" d="M427,278c-0.1,0.1-0.1,0.1-0.1,0C426.9,278.1,426.9,278.1,427,278C427,278,427,278,427,278L0,501.5v34.1
		L427,278C427,278,427,278,427,278z"/>
	<path class="st2" d="M427.2,278.2C427.1,278.3,427.1,278.3,427.2,278.2C427.1,278.4,427.1,278.3,427.2,278.2
		C427.2,278.2,427.2,278.2,427.2,278.2L225.9,569H251L427.2,278.2C427.2,278.2,427.2,278.2,427.2,278.2z"/>
	<path class="st2" d="M427.1,278.1C427,278.2,427,278.2,427.1,278.1C427,278.2,427,278.2,427.1,278.1
		C427.1,278.1,427.1,278.1,427.1,278.1L97.9,569h37.6L427.1,278.1C427.1,278.1,427.1,278.1,427.1,278.1z"/>
	<path class="st2" d="M427,277.9c-0.1,0-0.1,0.1-0.1,0C426.8,278,426.8,278,427,277.9C427,277.9,427,277.9,427,277.9L0,439.2v30.3
		L427,277.9C427,277.9,427,277.9,427,277.9z"/>
	<path class="st2" d="M427.1,278.2C427.1,278.3,427,278.3,427.1,278.2C427,278.3,427,278.3,427.1,278.2
		C427.1,278.2,427.1,278.1,427.1,278.2L168.8,569h29.9L427.1,278.2C427.2,278.2,427.2,278.2,427.1,278.2z"/>
	<path class="st2" d="M427,277.4C426.9,277.4,426.8,277.4,427,277.4C426.8,277.3,426.9,277.4,427,277.4
		C427,277.4,427,277.4,427,277.4L0,52.6v32.1L427,277.4C427,277.4,427,277.4,427,277.4z"/>
	<path class="st2" d="M427,277.5C426.8,277.5,426.8,277.5,427,277.5C426.8,277.4,426.8,277.4,427,277.5
		C427,277.5,427,277.5,427,277.5L0,115v29L427,277.5C427,277.5,427,277.5,427,277.5z"/>
	<path class="st2" d="M426.9,277.8C426.8,277.8,426.8,277.8,426.9,277.8C426.8,277.8,426.8,277.8,426.9,277.8
		C426.9,277.8,427,277.8,426.9,277.8L0,328.9v26.4L426.9,277.8C426.9,277.8,426.9,277.8,426.9,277.8z"/>
	<path class="st2" d="M427.3,278.3C427.2,278.4,427.2,278.4,427.3,278.3C427.2,278.4,427.2,278.4,427.3,278.3
		C427.3,278.2,427.3,278.2,427.3,278.3L274.3,569h21.9L427.3,278.3C427.3,278.2,427.3,278.3,427.3,278.3z"/>
	<path class="st2" d="M426.9,277.7c-0.1,0-0.2,0-0.1,0C426.7,277.7,426.8,277.7,426.9,277.7C426.9,277.7,427,277.7,426.9,277.7
		L0,277v25.9L426.9,277.7C426.9,277.7,426.9,277.7,426.9,277.7z"/>
	<path class="st2" d="M426.9,277.6C426.8,277.6,426.8,277.5,426.9,277.6C426.8,277.5,426.8,277.5,426.9,277.6
		C426.9,277.6,427,277.6,426.9,277.6L0,172v27.1L426.9,277.6C426.9,277.6,426.9,277.6,426.9,277.6z"/>
	<path class="st2" d="M426.9,277.7C426.8,277.6,426.8,277.6,426.9,277.7C426.8,277.6,426.8,277.6,426.9,277.7
		C427,277.6,427,277.6,426.9,277.7L0,225.5v26L426.9,277.7C426.9,277.7,426.9,277.7,426.9,277.7z"/>
	<path class="st2" d="M427.9,278.2C428,278.3,428,278.3,427.9,278.2C428,278.3,428,278.3,427.9,278.2
		C427.9,278.2,427.9,278.2,427.9,278.2L629.3,569h27.2L427.9,278.2C427.9,278.2,427.9,278.2,427.9,278.2z"/>
	<path class="st2" d="M427.9,278.2C427.9,278.3,427.9,278.4,427.9,278.2C427.9,278.4,427.9,278.4,427.9,278.2
		C427.8,278.2,427.8,278.2,427.9,278.2L581,569h23.2L427.9,278.2C427.8,278.2,427.9,278.2,427.9,278.2z"/>
	<path class="st2" d="M427.8,278.3C427.8,278.4,427.8,278.4,427.8,278.3C427.8,278.4,427.8,278.4,427.8,278.3
		C427.8,278.3,427.8,278.3,427.8,278.3L538.4,569h20.7L427.8,278.3C427.8,278.2,427.8,278.3,427.8,278.3z"/>
	<path class="st2" d="M428,278.2C428.1,278.3,428.1,278.3,428,278.2C428.1,278.3,428,278.3,428,278.2
		C428,278.2,427.9,278.2,428,278.2L686.4,569h33.3L428,278.2C428,278.1,428,278.1,428,278.2z"/>
	<path class="st2" d="M428,278C428,278,428.1,278,428,278c0.1,0.1,0.2,0.1,0.1,0.1C428.2,278.1,428.2,278.1,428,278
		C428.1,278,428,278,428,278l422.8,291h5.2v-33.2L428,278z"/>
	<path class="st2" d="M428,278.1C428.1,278.2,428.2,278.2,428,278.1C428.1,278.2,428.1,278.2,428,278.1
		C428,278.1,428,278.1,428,278.1L757.3,569h43.1L428,278.1C428,278.1,428,278.1,428,278.1z"/>
	<path class="st2" d="M427.7,278.3C427.7,278.4,427.8,278.4,427.7,278.3C427.7,278.4,427.7,278.4,427.7,278.3
		C427.7,278.3,427.7,278.3,427.7,278.3L499.5,569h19.1L427.7,278.3C427.7,278.3,427.7,278.3,427.7,278.3z"/>
	<path class="st2" d="M427.5,278.3C427.5,278.4,427.5,278.5,427.5,278.3C427.5,278.5,427.5,278.4,427.5,278.3
		C427.5,278.3,427.5,278.3,427.5,278.3L392.4,569h17.7L427.5,278.3C427.5,278.3,427.5,278.3,427.5,278.3z"/>
	<path class="st2" d="M427.4,278.3c0,0.1,0,0.2,0,0.1C427.4,278.4,427.4,278.4,427.4,278.3C427.4,278.3,427.4,278.3,427.4,278.3
		L355.8,569h18.5L427.4,278.3C427.4,278.3,427.4,278.3,427.4,278.3z"/>
	<path class="st2" d="M427.3,278.3C427.3,278.4,427.3,278.4,427.3,278.3C427.3,278.4,427.3,278.4,427.3,278.3
		C427.3,278.3,427.3,278.2,427.3,278.3L316.9,569h19.8L427.3,278.3C427.4,278.3,427.4,278.3,427.3,278.3z"/>
	<path class="st2" d="M427.6,278.3c0,0.1,0,0.1,0,0.1C427.6,278.5,427.5,278.5,427.6,278.3C427.5,278.3,427.5,278.3,427.6,278.3
		l0.1,290.7h17.6L427.6,278.3C427.6,278.3,427.6,278.3,427.6,278.3z"/>
	<path class="st2" d="M427.6,278.3C427.7,278.4,427.7,278.5,427.6,278.3C427.7,278.5,427.6,278.5,427.6,278.3
		C427.6,278.3,427.6,278.3,427.6,278.3L463,569h18.1L427.6,278.3C427.6,278.3,427.6,278.3,427.6,278.3z"/>
	<path class="st2" d="M426.9,277.9c-0.1,0-0.1,0-0.1,0C426.8,277.9,426.8,277.9,426.9,277.9C427,277.8,427,277.8,426.9,277.9
		L0,382.4v27.9L426.9,277.9C427,277.9,427,277.9,426.9,277.9z"/>
	<path class="st2" d="M428.1,277.4C428.2,277.3,428.2,277.3,428.1,277.4C428.2,277.3,428.2,277.3,428.1,277.4
		C428.1,277.4,428.1,277.4,428.1,277.4L856,50.6V16.4L428.1,277.4C428,277.4,428.1,277.4,428.1,277.4z"/>
	<path class="st2" d="M428,277.3C428.1,277.2,428.2,277.2,428,277.3C428.2,277.2,428.2,277.3,428,277.3
		C428,277.3,428,277.3,428,277.3L826.6,0h-47.2L428,277.3C428,277.3,428,277.3,428,277.3z"/>
	<path class="st2" d="M428.1,277.4C428.2,277.4,428.3,277.4,428.1,277.4C428.2,277.4,428.2,277.4,428.1,277.4
		C428.1,277.5,428.1,277.5,428.1,277.4L856,113.1V82.7L428.1,277.4C428.1,277.5,428.1,277.4,428.1,277.4z"/>
	<path class="st2" d="M427.9,277.2C428,277.1,428,277.1,427.9,277.2C428,277.1,428,277.1,427.9,277.2
		C428,277.2,427.9,277.2,427.9,277.2L672.1,0h-28.2L427.9,277.2C427.9,277.2,427.9,277.2,427.9,277.2z"/>
	<path class="st2" d="M428,277.2C428.1,277.2,428.1,277.2,428,277.2C428.1,277.2,428.1,277.2,428,277.2
		C428,277.3,428,277.3,428,277.2L738.9,0h-35.4L428,277.2C428,277.3,428,277.3,428,277.2z"/>
	<path class="st2" d="M428.1,277.5c0.1,0,0.1,0,0.1,0C428.3,277.5,428.3,277.5,428.1,277.5C428.2,277.5,428.1,277.5,428.1,277.5
		L856,170.3v-28L428.1,277.5C428.1,277.5,428.1,277.5,428.1,277.5z"/>
	<path class="st2" d="M427.9,277.1C427.9,277.1,428,277,427.9,277.1C428,277,428,277.1,427.9,277.1
		C427.9,277.2,427.9,277.2,427.9,277.1L618.2,0h-23.7L427.9,277.1C427.8,277.2,427.9,277.2,427.9,277.1z"/>
	<path class="st2" d="M428.1,277.9C428.2,277.9,428.2,277.9,428.1,277.9C428.3,278,428.2,278,428.1,277.9
		C428.1,277.9,428.1,277.9,428.1,277.9L856,439.1v-29.1L428.1,277.9C428.1,277.9,428.1,277.9,428.1,277.9z"/>
	<path class="st2" d="M428.2,277.6c0.1,0,0.1,0,0.1,0C428.3,277.6,428.3,277.6,428.2,277.6C428.2,277.6,428.1,277.6,428.2,277.6
		L856,224v-26.6L428.2,277.6C428.1,277.6,428.1,277.6,428.2,277.6z"/>
	<path class="st2" d="M428.2,277.8C428.3,277.8,428.3,277.9,428.2,277.8C428.3,277.9,428.3,277.9,428.2,277.8
		C428.2,277.8,428.1,277.8,428.2,277.8L856,382.1V355L428.2,277.8C428.1,277.8,428.1,277.8,428.2,277.8z"/>
	<path class="st2" d="M428.1,278C428.2,278,428.2,278,428.1,278C428.2,278,428.2,278,428.1,278C428.1,278,428.1,278,428.1,278
		L856,501.7v-32L428.1,278C428.1,277.9,428.1,278,428.1,278z"/>
	<path class="st2" d="M428.2,277.7c0.1,0,0.2,0,0.1,0C428.3,277.7,428.3,277.7,428.2,277.7C428.2,277.7,428.2,277.7,428.2,277.7
		l325.2-1.9l102.6,0V250L428.2,277.7C428.1,277.7,428.1,277.7,428.2,277.7z"/>
	<path class="st2" d="M428.2,277.7C428.3,277.8,428.3,277.8,428.2,277.7C428.3,277.8,428.3,277.8,428.2,277.7
		C428.2,277.8,428.1,277.8,428.2,277.7L856,328.5v-26.1L428.2,277.7C428.1,277.7,428.2,277.7,428.2,277.7z"/>
	<path class="st2" d="M427.1,277.2C427,277.2,427,277.1,427.1,277.2C427,277.1,427,277.1,427.1,277.2
		C427.1,277.2,427.1,277.3,427.1,277.2L181.7,0h-31.5L427.1,277.2C427.1,277.3,427.1,277.3,427.1,277.2z"/>
	<path class="st2" d="M427.2,277.2c-0.1-0.1-0.1-0.1,0-0.1C427.2,277,427.2,277,427.2,277.2C427.3,277.2,427.3,277.2,427.2,277.2
		L281.6,0h-22.1L427.2,277.2C427.2,277.2,427.2,277.2,427.2,277.2z"/>
	<path class="st2" d="M427.4,277.1c0-0.1,0-0.2,0-0.1C427.3,277,427.4,277,427.4,277.1C427.4,277.1,427.4,277.1,427.4,277.1L358.9,0
		h-18.1L427.4,277.1C427.4,277.1,427.4,277.1,427.4,277.1z"/>
	<path class="st2" d="M427.3,277.1c0-0.1-0.1-0.1,0-0.1C427.2,277,427.3,277,427.3,277.1C427.3,277.1,427.3,277.1,427.3,277.1L322,0
		h-19.6L427.3,277.1C427.3,277.2,427.3,277.1,427.3,277.1z"/>
	<path class="st2" d="M427.2,277.2C427.1,277.1,427.1,277.1,427.2,277.2C427.1,277.1,427.1,277.1,427.2,277.2
		C427.2,277.2,427.2,277.2,427.2,277.2L235.8,0H210L427.2,277.2C427.2,277.2,427.2,277.2,427.2,277.2z"/>
	<path class="st2" d="M427.8,277.1C427.9,277,427.9,277,427.8,277.1C427.9,277,427.9,277,427.8,277.1
		C427.8,277.1,427.8,277.2,427.8,277.1L572.5,0h-20.7L427.8,277.1C427.8,277.2,427.8,277.1,427.8,277.1z"/>
	<path class="st2" d="M427,277.3C427,277.2,426.9,277.2,427,277.3C426.9,277.2,427,277.2,427,277.3
		C427.1,277.3,427.1,277.3,427,277.3L114.6,0H73.9L427,277.3C427.1,277.3,427.1,277.3,427,277.3z"/>
	<path class="st2" d="M427,277.4C426.9,277.3,426.9,277.3,427,277.4C426.9,277.3,426.9,277.3,427,277.4
		C427,277.4,427.1,277.4,427,277.4L26.3,0H0v18.4L427,277.4C427,277.4,427,277.4,427,277.4z"/>
	<path class="st2" d="M427.7,277.1C427.8,277,427.8,277,427.7,277.1C427.8,277,427.8,277,427.7,277.1
		C427.8,277.1,427.7,277.1,427.7,277.1L532.1,0h-18.8L427.7,277.1C427.7,277.1,427.7,277.1,427.7,277.1z"/>
	<path class="st2" d="M427.7,277.1c0-0.1,0-0.2,0-0.1C427.7,277,427.7,277,427.7,277.1C427.7,277.1,427.7,277.1,427.7,277.1L495.2,0
		h-17.5L427.7,277.1C427.6,277.1,427.7,277.1,427.7,277.1z"/>
	<path class="st2" d="M427.4,277.1c0-0.1,0-0.2,0-0.1C427.4,276.9,427.4,277,427.4,277.1C427.5,277.1,427.5,277.1,427.4,277.1
		L393.6,0h-17.1L427.4,277.1C427.4,277.1,427.4,277.1,427.4,277.1z"/>
	<path class="st2" d="M427.5,277.1c0-0.1,0-0.2,0-0.1C427.5,276.9,427.5,276.9,427.5,277.1C427.5,277.1,427.5,277.1,427.5,277.1
		L427.2,0h-16.8L427.5,277.1C427.5,277.1,427.5,277.1,427.5,277.1z"/>
	<path class="st2" d="M427.6,277.1C427.6,276.9,427.6,276.9,427.6,277.1C427.6,276.9,427.6,277,427.6,277.1
		C427.6,277.1,427.6,277.1,427.6,277.1L460.6,0h-16.8L427.6,277.1C427.6,277.1,427.6,277.1,427.6,277.1z"/>
	<path class="st3" d="M428.1,278.1C428.2,278.1,428.2,278.1,428.1,278.1C428.2,278.1,428.2,278.1,428.1,278.1
		C428.1,278,428,278,428.1,278.1L856,535.8v-34.1L428.1,278.1C428.1,278,428.1,278,428.1,278.1c0.1,0,0.2,0,0.1,0
		C428.2,278,428.2,278,428.1,278.1c0-0.1,0-0.1,0-0.1L856,469.6v-30.5L428.1,277.9c0,0,0,0,0,0c0.1,0,0.1,0,0.1,0c0,0,0,0-0.1,0
		c0,0,0,0-0.1,0L856,410.1v-28L428.1,277.8c0,0,0,0,0.1,0c0.1,0,0.1,0,0.1,0c0.1,0,0,0-0.1,0c0,0,0,0-0.1,0L856,355v-26.5
		l-427.9-50.8c0,0,0,0,0.1,0c0.1,0,0.1,0,0.1,0c0,0,0,0-0.1,0c0,0,0,0-0.1,0L856,302.5v-26.6l-102.6,0l-325.2,1.9c0,0,0,0,0,0
		c0.1,0,0.1,0,0.1,0c0.1,0,0,0-0.1,0c0,0,0,0-0.1,0L856,250v-26l-427.9,53.6c0,0,0,0,0,0c0.1,0,0.1,0,0.1,0c0,0,0,0-0.1,0
		c0,0,0,0-0.1,0L856,197.4v-27.2L428.1,277.5c0,0,0,0,0,0c0.1,0,0.1,0,0.1,0c0,0,0,0-0.1,0c0,0,0,0-0.1,0L856,142.2v-29.1
		L428.1,277.5c0,0,0,0,0,0c0.1,0,0.1,0,0.1,0c0,0,0,0-0.1,0c0,0,0,0-0.1,0L856,82.7V50.6L428.1,277.4c0,0,0,0,0,0
		c0.1-0.1,0.1-0.1,0.1-0.1c0,0,0,0-0.1,0c0,0,0,0-0.1,0l428-261V0h-29.4L428,277.4c0,0,0,0,0,0c0.1-0.1,0.1-0.1,0.1-0.1
		c0,0,0,0-0.1,0.1c0,0,0,0-0.1,0L779.4,0h-40.5L428,277.3c0,0,0,0,0,0c0.1-0.1,0.1-0.1,0.1-0.1c0,0,0,0-0.1,0.1c0,0,0,0-0.1,0
		L703.5,0h-31.4L427.9,277.2c0,0,0,0,0,0c0.1-0.1,0.1-0.1,0.1-0.1c0,0,0,0-0.1,0.1c0,0,0,0-0.1,0.1L643.9,0h-25.8L427.9,277.2
		c0,0,0,0,0,0c0.1-0.1,0.1-0.1,0-0.1c0,0,0,0-0.1,0.1c0,0,0,0,0,0.1L594.5,0h-22.1L427.8,277.2c0,0,0,0,0,0c0.1-0.1,0.1-0.1,0-0.1
		c0,0,0,0,0,0.1c0,0,0,0,0,0.1L551.7,0h-19.6L427.7,277.2c0,0,0,0,0,0c0-0.1,0-0.1,0-0.1c0,0,0,0,0,0.1c0,0,0,0,0,0.1L513.3,0h-18.1
		l-67.5,277.1c0,0,0,0,0,0c0-0.1,0-0.1,0-0.1c0-0.1,0,0,0,0.1c0,0,0,0,0,0.1L477.7,0h-17.1l-32.9,277.1c0,0,0,0,0-0.1
		c0-0.1,0-0.1,0-0.1c0-0.1,0,0,0,0.1c0,0,0,0,0,0.1L443.7,0h-16.5l0.3,277.1c0,0,0,0,0,0c0-0.1,0-0.2,0-0.1c0,0,0,0,0,0.1
		c0,0,0,0,0,0.1L410.4,0h-16.8l33.9,277.1c0,0,0,0,0,0c0-0.1,0-0.1,0-0.1c0,0,0,0,0,0.1c0,0,0,0,0,0L376.4,0h-17.6l68.5,277.1
		c0,0,0,0,0,0c0-0.1,0-0.1,0-0.1c0,0,0,0,0,0.1c0,0,0,0,0,0L340.8,0H322l105.4,277.2c0,0,0,0,0,0c0-0.1-0.1-0.1-0.1-0.1
		c0,0,0,0,0,0.1c0,0,0,0,0,0L302.4,0h-20.7l145.7,277.2c0,0,0,0,0,0c-0.1-0.1-0.1-0.1-0.1-0.1c0,0,0,0,0,0.1c0,0,0,0,0,0L259.5,0
		h-23.7l191.4,277.2c0,0,0,0,0,0c-0.1-0.1-0.1-0.1-0.1-0.1c0,0,0,0,0.1,0.1c0,0,0,0,0,0L210,0h-28.3l245.4,277.3c0,0,0,0,0,0
		c-0.1-0.1-0.1-0.1-0.1-0.1c0,0,0,0,0.1,0.1c0,0,0,0,0,0L150.2,0h-35.6l312.5,277.3c0,0,0,0,0,0c-0.1-0.1-0.1-0.1-0.1-0.1
		c0,0,0,0,0.1,0.1c0,0,0,0,0,0L73.9,0H26.3l400.8,277.4c0,0,0,0,0,0c-0.1-0.1-0.1-0.1-0.1,0c0,0,0,0,0.1,0.1c0,0,0,0,0,0L0,18.4
		v34.2l427,224.8c0,0,0,0-0.1,0c-0.1-0.1-0.2-0.1-0.1,0c0,0,0,0,0.1,0.1c0,0,0,0,0,0L0,84.7V115l427,162.5c0,0,0,0-0.1,0
		c-0.1,0-0.2,0-0.1,0c0,0,0,0,0.1,0c0,0,0,0,0,0L0,144.1V172l427,105.6c0,0,0,0-0.1,0c-0.1,0-0.1,0-0.1,0c0,0,0,0,0.1,0c0,0,0,0,0,0
		L0,199.1v26.4l427,52.1c0,0,0,0-0.1,0c-0.1,0-0.2,0-0.1,0c0,0,0,0,0.1,0c0,0,0,0,0,0L0,251.5V277l427,0.7c0,0,0,0-0.1,0
		c-0.1,0-0.2,0-0.1,0c0,0,0,0,0.1,0c0,0,0,0,0,0L0,302.9v26l427-51.1c0,0,0,0-0.1,0c-0.1,0-0.2,0-0.1,0c0,0,0,0,0.1,0c0,0,0,0,0,0
		L0,355.3v27.1l427-104.5c0,0,0,0-0.1,0c-0.1,0-0.2,0-0.1,0c0,0,0,0,0.1,0c0,0,0,0,0,0L0,410.3v29l427-161.3c0,0,0,0-0.1,0
		c-0.1,0-0.1,0.1-0.1,0.1c0,0,0,0,0.1,0c0,0,0,0,0,0L0,469.5v32L427,278c0,0,0,0-0.1,0c-0.1,0.1-0.1,0.1-0.1,0.1c0,0,0,0,0.1,0
		c0,0,0,0,0,0L0,535.6V569h4.5l422.5-291c0,0,0,0-0.1,0c-0.1,0.1-0.1,0.1-0.1,0.1c0,0,0,0,0.1-0.1c0,0,0,0,0,0L54.9,569h43
		l329.2-290.9c0,0,0,0,0,0c-0.1,0.1-0.1,0.1-0.1,0.1c0,0,0,0,0.1-0.1c0,0,0,0,0,0L135.5,569h33.2l258.4-290.9c0,0,0,0,0,0
		c-0.1,0.1-0.1,0.1-0.1,0.1c0,0,0,0,0.1-0.1c0,0,0,0,0,0L198.7,569h27.2l201.3-290.8c0,0,0,0,0,0c-0.1,0.1-0.1,0.1,0,0.1
		c0,0,0,0,0.1-0.1c0,0,0,0,0,0L251,569h23.3l153-290.8c0,0,0,0,0,0.1c-0.1,0.1-0.1,0.1,0,0.1c0,0,0,0,0.1-0.1c0,0,0,0,0,0L296.2,569
		h20.8l110.4-290.8c0,0,0,0,0,0.1c0,0.1,0,0.1,0,0.1c0,0,0,0,0-0.1c0,0,0,0,0,0L336.8,569h19.1l71.6-290.8c0,0,0,0,0,0.1
		c0,0.1,0,0.1,0,0.1c0,0.1,0,0,0-0.1c0,0,0,0,0,0L374.3,569h18l35.1-290.7c0,0,0,0,0,0.1c0,0.1,0,0.2,0,0.1c0,0,0,0,0-0.1
		c0,0,0,0,0,0L410.1,569h17.6l-0.1-290.7c0,0,0,0,0,0c0,0.1,0,0.2,0,0.1c0,0,0,0,0-0.1c0,0,0,0,0-0.1L445.2,569H463l-35.4-290.7
		c0,0,0,0,0,0.1c0,0.1,0,0.2,0,0.1c0,0,0,0,0-0.1c0,0,0,0,0-0.1L481.1,569h18.5l-71.8-290.7c0,0,0,0,0,0.1c0,0.1,0,0.1,0,0.1
		c0,0,0,0,0-0.1c0,0,0,0,0-0.1L518.6,569h19.8L427.7,278.2c0,0,0,0,0,0.1c0,0.1,0.1,0.1,0,0.1c0,0,0,0,0-0.1c0,0,0,0,0,0L559.1,569
		H581L427.8,278.2c0,0,0,0,0,0c0.1,0.1,0.1,0.1,0.1,0.1c0,0,0,0,0-0.1c0,0,0,0,0,0L604.2,569h25.1L427.9,278.2c0,0,0,0,0,0
		c0.1,0.1,0.1,0.1,0.1,0.1c0,0,0,0-0.1-0.1c0,0,0,0,0,0L656.5,569h29.8L427.9,278.1c0,0,0,0,0,0c0.1,0.1,0.1,0.1,0.1,0.1
		c0,0,0,0-0.1-0.1c0,0,0,0,0,0L719.7,569h37.6L428.1,278.1C428,278.1,428,278.1,428.1,278.1c0,0.1,0.1,0.1,0,0.1
		C428.2,278.2,428.1,278.2,428.1,278.1C428,278.1,428,278.1,428.1,278.1L800.4,569h50.4L428.1,278.1C428,278,428.1,278,428.1,278.1z
		"/>
</g>
<image style="overflow:visible;" width="855" height="665" id="Layer_5_xA0_Image" xlink:href="Gurudev ashan.png" >
</image>
<image style="overflow:visible;" width="855" height="665" id="Layer_4_xA0_Image" xlink:href="Gurudev.png"  transform="matrix(0.9462 0 0 0.9462 0 6.7778)">
</image>
<image style="overflow:visible;" width="855" height="665" id="Layer_6_xA0_Image" xlink:href="Dada Gurudev ashan.png"  transform="matrix(1 0 0 1 -3 1)">
</image>
<image style="overflow:visible;" width="406" height="497" id="Layer_12_xA0_Image" xlink:href="Dada Gurudev.png"  transform="matrix(0.9376 0 0 0.9557 443.1972 90)">
</image>
<image style="overflow:visible;" width="198" height="43" id="OSGNN_By_Gurudev_xA0_Image" xlink:href="OMSGNN.png"  transform="matrix(1 0 0 1 331 34)">
</image>
<rect y="572" class="st4" width="853" height="93"/>
<text transform="matrix(0.9253 0 0 1 48.4199 607.9258)"><tspan x="0" y="0" class="st5 st6 st7">Gurudev Shri Ramlal Ji Siyag</tspan><tspan x="11" y="29.3" class="st5 st6 st8">(Founder &amp; Patron of AVSK Jodhpur)</tspan></text>
<text transform="matrix(0.9253 0 0 1 476.4019 603.9258)"><tspan x="0" y="0" class="st5 st6 st7">Baba Shri Gangainath Ji Yogi</tspan><tspan x="23.4" y="29.3" class="st5 st6 st8">(Brahmleen) Gurudev Siyag’s Guru</tspan></text>
</svg>
