<?xml version="1.0" encoding="utf-8"?>
<!-- Generator: Adobe Illustrator 21.0.0, SVG Export Plug-In . SVG Version: 6.00 Build 0)  -->
<svg version="1.1" id="Layer_1" xmlns="http://www.w3.org/2000/svg" xmlns:xlink="http://www.w3.org/1999/xlink" x="0px" y="0px"
	 viewBox="0 0 120 120" style="enable-background:new 0 0 120 120;" xml:space="preserve">
<style type="text/css">
	.st0{opacity:0.5;fill:#BDC5D1;enable-background:new    ;}
	.st1{fill:none;stroke:#BDC5D1;stroke-width:3;stroke-linecap:round;stroke-linejoin:round;stroke-miterlimit:10;}
	.st2{fill:none;stroke:#FFFFFF;stroke-width:3;stroke-linecap:round;stroke-linejoin:round;stroke-miterlimit:10;}
	.st3{fill:#FFFFFF;stroke:#377DFF;stroke-width:0.5;stroke-miterlimit:10;}
	.st4{font-family:'Calibri-Bold';}
	.st5{font-size:1.5157px;}
	.st6{font-family:'Calibri-Light';}
	.st7{font-size:1.3383px;}
	.st8{font-family:'Arial-BoldMT';}
	.st9{font-size:3.8359px;}
	.st10{font-size:1.6226px;}
</style>
<rect x="102.2" y="15" class="st0" width="9.5" height="105"/>
<path class="st1" d="M19.5,110.4V12.2c0-5.9,4.8-10.7,10.7-10.7h70.4v100.7h-73C23.1,102.2,19.5,105.9,19.5,110.4L19.5,110.4
	c0,4.5,3.6,8.1,8.1,8.1h72.9"/>
<line class="st1" x1="100.5" y1="107.6" x2="29.4" y2="107.6"/>
<line class="st1" x1="100.5" y1="113.1" x2="29.4" y2="113.1"/>
<line class="st2" x1="57.7" y1="38.4" x2="67.6" y2="38.4"/>
<line class="st2" x1="48.9" y1="46.4" x2="76.4" y2="46.4"/>
<line class="st2" x1="48.9" y1="54.5" x2="76.4" y2="54.5"/>
<line class="st2" x1="48.9" y1="62.6" x2="76.4" y2="62.6"/>
<g>
	<rect x="36.1" y="12.9" class="st3" width="53.7" height="78.1"/>
	<text transform="matrix(1 0 0 1 51.5598 18.695)" class="st4 st5">|| Om Shri Gangainathaya Namah||</text>
	<text transform="matrix(1 0 0 1 42.8929 33.925)"><tspan x="0" y="0" class="st6 st7">Yadā-Yadā hi dharmasya</tspan><tspan x="0" y="1.6" class="st6 st7">   glānir bhavati bhārata</tspan><tspan x="0" y="3.2" class="st6 st7">      abhyuthānam adharmasya</tspan><tspan x="0" y="4.8" class="st6 st7">         tadā ‘tmānam srjāmy aham</tspan></text>
	<text transform="matrix(1 0 0 1 68.6003 33.925)"><tspan x="0" y="0" class="st6 st7">Paritrānāya sādhunām</tspan><tspan x="0" y="1.6" class="st6 st7">   vināsāya ca duskrtām</tspan><tspan x="0" y="3.2" class="st6 st7">      dharmasamsthāpanārthāya</tspan><tspan x="0" y="4.8" class="st6 st7">         sambhavāmi yuge-yuge</tspan></text>
	<text transform="matrix(1.0122 0 0 1 39.6099 56.041)"><tspan x="0" y="0" class="st8 st9">RELIGIOUS REVOLUTION</tspan><tspan x="21.7" y="4.6" class="st8 st9">IN</tspan><tspan x="12" y="9.2" class="st8 st9">THE WORLD</tspan></text>
	<text transform="matrix(0.9792 0 0 1 57.6096 81.2832)" class="st4 st10">Ch. Ramlal Siyag</text>
</g>
</svg>
